<?xml version="1.0" standalone="no"?><!DOCTYPE svg PUBLIC "-//W3C//DTD SVG 1.1//EN" "http://www.w3.org/Graphics/SVG/1.1/DTD/svg11.dtd"><svg t="1726642777928" class="icon" viewBox="0 0 1127 1024" version="1.1" xmlns="http://www.w3.org/2000/svg" p-id="7456" xmlns:xlink="http://www.w3.org/1999/xlink" width="220.1171875" height="200"><path d="M511.3 989.2c-64.5 0-127.1-12.6-186.1-37.6-56.9-24.1-108-58.5-151.9-102.4-43.9-43.9-78.4-95-102.4-151.9-24.9-59-37.6-121.6-37.6-186.1s12.6-127.1 37.6-186.1c24.1-56.9 58.5-108 102.4-151.9 43.9-43.9 95-78.4 151.9-102.4 58.9-24.9 121.6-37.6 186.1-37.6s127.1 12.6 186.1 37.6c56.9 24.1 108 58.5 151.9 102.4 43.9 43.9 78.4 95 102.4 151.9 24.9 58.9 37.6 121.6 37.6 186.1s-12.6 127.1-37.6 186.1c-24.1 56.9-58.5 108-102.4 151.9s-95 78.4-151.9 102.4c-58.9 25-121.6 37.6-186.1 37.6z m0-896c-56.4 0-111.2 11-162.7 32.8-49.8 21.1-94.5 51.2-132.9 89.6s-68.5 83.1-89.6 132.9C104.4 400 93.3 454.8 93.3 511.2s11 111.2 32.8 162.7c21.1 49.8 51.2 94.5 89.6 132.9 38.4 38.4 83.1 68.5 132.9 89.6 51.5 21.8 106.3 32.8 162.7 32.8s111.2-11 162.7-32.8c49.8-21.1 94.5-51.2 132.9-89.6 38.4-38.4 68.5-83.1 89.6-132.9 21.8-51.5 32.8-106.3 32.8-162.7s-11-111.2-32.8-162.7c-21.1-49.8-51.2-94.5-89.6-132.9-38.4-38.4-83.1-68.5-132.9-89.6-51.5-21.7-106.2-32.8-162.7-32.8z" p-id="7457"></path><path d="M492.1 715.2c-6.5 0-13.1-2.1-18.6-6.5-13-10.3-15.2-29.1-4.9-42.1l132.2-167.4-131.9-161c-10.5-12.8-8.6-31.7 4.2-42.2 12.8-10.5 31.7-8.6 42.2 4.2l147.2 179.6c8.9 10.9 9.1 26.5 0.3 37.6L515.7 703.8c-5.9 7.5-14.7 11.4-23.6 11.4z" p-id="7458"></path></svg>