<?xml version="1.0" standalone="no"?><!DOCTYPE svg PUBLIC "-//W3C//DTD SVG 1.1//EN" "http://www.w3.org/Graphics/SVG/1.1/DTD/svg11.dtd"><svg t="1726642769153" class="icon" viewBox="0 0 1024 1024" version="1.1" xmlns="http://www.w3.org/2000/svg" p-id="7297" xmlns:xlink="http://www.w3.org/1999/xlink" width="200" height="200"><path d="M511.999573 0.001422a510.662118 510.662118 0 0 1 362.040185 149.95882 508.898566 508.898566 0 0 1 109.681565 162.701906A509.922564 509.922564 0 0 1 1023.998578 512.000427a510.662118 510.662118 0 0 1-149.95882 362.040185 508.898566 508.898566 0 0 1-162.701906 109.681564A509.524343 509.524343 0 0 1 511.999573 1023.999431a510.662118 510.662118 0 0 1-362.040185-149.958819 508.898566 508.898566 0 0 1-109.681564-162.701906A509.524343 509.524343 0 0 1 0.000569 512.000427 510.662118 510.662118 0 0 1 149.959388 149.960242a508.898566 508.898566 0 0 1 162.701906-109.681565A507.618569 507.618569 0 0 1 511.999573 0.001422z m0 959.71369c60.415883 0 119.096657-11.775977 174.278773-35.128821a446.918242 446.918242 0 0 0 142.335723-95.971369 446.918242 446.918242 0 0 0 95.971369-142.335723A446.690687 446.690687 0 0 0 959.742703 512.000427c0-60.415883-11.804421-119.096657-35.157265-174.278773a446.918242 446.918242 0 0 0-95.971369-142.335723 446.918242 446.918242 0 0 0-142.335723-95.971369A444.784913 444.784913 0 0 0 511.999573 64.257297c-60.415883 0-119.096657 11.804421-174.278772 35.157265A446.918242 446.918242 0 0 0 195.413522 195.385931a446.918242 446.918242 0 0 0-95.971369 142.335723A444.784913 444.784913 0 0 0 64.256444 512.000427c0 60.415883 11.804421 119.096657 35.157265 174.278772a446.918242 446.918242 0 0 0 95.971369 142.335723A446.292466 446.292466 0 0 0 511.999573 959.743556z" p-id="7298"></path><path d="M535.949749 284.445314c7.139542 0 14.392861 2.247107 20.423071 6.940431 14.279083 11.007979 16.696856 31.089717 5.404434 44.970579l-145.208606 178.858319 144.867274 172.003221c11.519978 13.653307 9.443537 33.848823-4.607991 45.084357a33.564379 33.564379 0 0 1-46.364355-4.494214l-161.677908-191.857405a31.288828 31.288828 0 0 1-0.312888-40.191922l161.56413-199.110723c6.485321-8.049762 16.127969-12.202643 25.912839-12.202643z" p-id="7299"></path></svg>